<svg width="34" height="31" viewBox="0 0 34 31" fill="none" xmlns="http://www.w3.org/2000/svg">
<path d="M14.5 0.5C14.1685 0.5 13.8505 0.631696 13.6161 0.866117C13.3817 1.10054 13.25 1.41848 13.25 1.75C13.25 2.08152 13.3817 2.39946 13.6161 2.63388C13.8505 2.8683 14.1685 3 14.5 3H27C27.9946 3 28.9484 3.39509 29.6517 4.09835C30.3549 4.80161 30.75 5.75544 30.75 6.75V24.25C30.75 25.2446 30.3549 26.1984 29.6517 26.9017C28.9484 27.6049 27.9946 28 27 28H14.5C14.1685 28 13.8505 28.1317 13.6161 28.3661C13.3817 28.6005 13.25 28.9185 13.25 29.25C13.25 29.5815 13.3817 29.8995 13.6161 30.1339C13.8505 30.3683 14.1685 30.5 14.5 30.5H27C28.6576 30.5 30.2473 29.8415 31.4194 28.6694C32.5915 27.4973 33.25 25.9076 33.25 24.25V6.75C33.25 5.0924 32.5915 3.50269 31.4194 2.33058C30.2473 1.15848 28.6576 0.5 27 0.5H14.5ZM22.885 14.615L15.385 7.115C15.2688 6.99878 15.1308 6.90659 14.979 6.84369C14.8271 6.78079 14.6644 6.74842 14.5 6.74842C14.3356 6.74842 14.1729 6.78079 14.021 6.84369C13.8692 6.90659 13.7312 6.99878 13.615 7.115C13.4988 7.23122 13.4066 7.36919 13.3437 7.52104C13.2808 7.67289 13.2484 7.83564 13.2484 8C13.2484 8.16436 13.2808 8.32711 13.3437 8.47896C13.4066 8.63081 13.4988 8.76878 13.615 8.885L18.9825 14.25H2C1.66848 14.25 1.35054 14.3817 1.11612 14.6161C0.881696 14.8505 0.75 15.1685 0.75 15.5C0.75 15.8315 0.881696 16.1495 1.11612 16.3839C1.35054 16.6183 1.66848 16.75 2 16.75H18.9825L13.615 22.115C13.3803 22.3497 13.2484 22.6681 13.2484 23C13.2484 23.3319 13.3803 23.6503 13.615 23.885C13.8497 24.1197 14.1681 24.2516 14.5 24.2516C14.8319 24.2516 15.1503 24.1197 15.385 23.885L22.885 16.385C23.0014 16.2689 23.0938 16.1309 23.1568 15.9791C23.2198 15.8272 23.2522 15.6644 23.2522 15.5C23.2522 15.3356 23.2198 15.1728 23.1568 15.0209C23.0938 14.8691 23.0014 14.7311 22.885 14.615Z" fill="white"/>
</svg>
